<svg width="416.28502197265624px" height="124.64000549316405px" xmlns="http://www.w3.org/2000/svg" viewBox="41.85748901367188 12.679997253417973 416.28502197265624 124.64000549316405" style="background: rgba(0, 0, 0, 0);" preserveAspectRatio="xMidYMid"><defs><filter id="editing-extrusion" x="-100%" y="-100%" width="300%" height="300%"><feFlood result="color1" flood-color="#444"></feFlood><feConvolveMatrix order="8,8" divisor="1" kernelMatrix="1 0 0 0 0 0 0 0 0 1 0 0 0 0 0 0 0 0 1 0 0 0 0 0 0 0 0 1 0 0 0 0 0 0 0 0 1 0 0 0 0 0 0 0 0 1 0 0 0 0 0 0 0 0 1 0 0 0 0 0 0 0 0 1" in="SourceAlpha" result="extrude"></feConvolveMatrix><feComposite in="color1" in2="extrude" result="comp-extrude" operator="in"></feComposite><feOffset dx="4" dy="4" in="comp-extrude" result="offset-extrude"></feOffset><feMerge><feMergeNode in="offset-extrude"></feMergeNode><feMergeNode in="SourceGraphic"></feMergeNode></feMerge></filter></defs><g filter="url(#editing-extrusion)"><g transform="translate(106.57327485084534, 105.33500099182129)"><path d="M12.10-43.33L12.10-1.60L12.10-1.60Q12.10 2.24 11.04 4.83L11.04 4.83L11.04 4.83Q9.98 7.42 8.35 9.22L8.35 9.22L8.35 9.22Q6.72 11.01 4.70 12.16L4.70 12.16L4.70 12.16Q2.69 13.31 0.77 14.27L0.77 14.27L-2.24 9.22L-2.24 9.22Q0.26 8 1.63 6.62L1.63 6.62L1.63 6.62Q3.01 5.25 3.65 3.94L3.65 3.94L3.65 3.94Q4.29 2.62 4.38 1.41L4.38 1.41L4.38 1.41Q4.48 0.19 4.48-0.83L4.48-0.83L4.48-43.33L12.10-43.33ZM18.37-15.17L18.37-15.17Q18.37-19.46 19.55-22.72L19.55-22.72L19.55-22.72Q20.74-25.98 22.82-28.19L22.82-28.19L22.82-28.19Q24.90-30.40 27.71-31.52L27.71-31.52L27.71-31.52Q30.53-32.64 33.79-32.64L33.79-32.64L33.79-32.64Q36.67-32.64 38.69-31.94L38.69-31.94L38.69-31.94Q40.70-31.23 41.98-30.02L41.98-30.02L41.98-30.02Q43.26-28.80 43.87-27.14L43.87-27.14L43.87-27.14Q44.48-25.47 44.48-23.55L44.48-23.55L44.48-23.55Q44.48-21.25 43.20-19.17L43.20-19.17L43.20-19.17Q41.92-17.09 39.52-15.52L39.52-15.52L39.52-15.52Q37.12-13.95 33.73-13.02L33.73-13.02L33.73-13.02Q30.34-12.10 26.11-12.03L26.11-12.03L26.11-12.03Q26.30-10.56 26.72-9.25L26.72-9.25L26.72-9.25Q27.14-7.94 27.94-6.94L27.94-6.94L27.94-6.94Q28.74-5.95 30.02-5.38L30.02-5.38L30.02-5.38Q31.30-4.80 33.22-4.80L33.22-4.80L33.22-4.80Q34.62-4.80 36.22-5.12L36.22-5.12L36.22-5.12Q37.82-5.44 39.17-5.89L39.17-5.89L39.17-5.89Q40.77-6.40 42.30-7.04L42.30-7.04L44.22-2.50L44.22-2.50Q42.56-1.66 40.64-1.02L40.64-1.02L40.64-1.02Q38.98-0.45 36.80 0L36.80 0L36.80 0Q34.62 0.45 32.19 0.45L32.19 0.45L32.19 0.45Q28.48 0.45 25.86-0.67L25.86-0.67L25.86-0.67Q23.23-1.79 21.57-3.84L21.57-3.84L21.57-3.84Q19.90-5.89 19.14-8.77L19.14-8.77L19.14-8.77Q18.37-11.65 18.37-15.17L18.37-15.17ZM33.22-27.65L33.22-27.65Q31.10-27.65 29.73-26.66L29.73-26.66L29.73-26.66Q28.35-25.66 27.52-24.10L27.52-24.10L27.52-24.10Q26.69-22.53 26.34-20.58L26.34-20.58L26.34-20.58Q25.98-18.62 25.92-16.64L25.92-16.64L25.92-16.64Q28.99-16.77 31.14-17.44L31.14-17.44L31.14-17.44Q33.28-18.11 34.62-19.10L34.62-19.10L34.62-19.10Q35.97-20.10 36.58-21.25L36.58-21.25L36.58-21.25Q37.18-22.40 37.18-23.55L37.18-23.55L37.18-23.55Q37.18-25.41 36.10-26.53L36.10-26.53L36.10-26.53Q35.01-27.65 33.22-27.65L33.22-27.65ZM94.34 0L87.10 0L87.10-20.86L87.10-20.86Q87.10-23.55 86.27-25.12L86.27-25.12L86.27-25.12Q85.44-26.69 83.39-26.69L83.39-26.69L83.39-26.69Q82.18-26.69 80.93-26.02L80.93-26.02L80.93-26.02Q79.68-25.34 78.66-24.06L78.66-24.06L78.66-24.06Q77.63-22.78 76.99-20.99L76.99-20.99L76.99-20.99Q76.35-19.20 76.35-17.02L76.35-17.02L76.35 0L69.12 0L69.12-20.86L69.12-20.86Q69.12-23.55 68.29-25.12L68.29-25.12L68.29-25.12Q67.46-26.69 65.41-26.69L65.41-26.69L65.41-26.69Q64.13-26.69 62.88-25.95L62.88-25.95L62.88-25.95Q61.63-25.22 60.64-23.81L60.64-23.81L60.64-23.81Q59.65-22.40 59.04-20.38L59.04-20.38L59.04-20.38Q58.43-18.37 58.43-15.87L58.43-15.87L58.43 0L51.14 0L51.14-16.13L51.14-16.13Q51.14-19.97 50.62-22.56L50.62-22.56L50.62-22.56Q50.11-25.15 49.54-26.75L49.54-26.75L49.54-26.75Q48.83-28.61 48.00-29.76L48.00-29.76L53.76-32.06L53.76-32.06Q54.40-31.36 55.04-30.34L55.04-30.34L55.04-30.34Q55.55-29.44 56.06-28.13L56.06-28.13L56.06-28.13Q56.58-26.82 56.90-25.15L56.90-25.15L56.90-25.15Q58.50-28.99 61.41-30.69L61.41-30.69L61.41-30.69Q64.32-32.38 67.58-32.38L67.58-32.38L67.58-32.38Q70.85-32.38 72.67-30.72L72.67-30.72L72.67-30.72Q74.50-29.06 75.39-26.43L75.39-26.43L75.39-26.43Q77.12-29.63 79.84-31.01L79.84-31.01L79.84-31.01Q82.56-32.38 85.57-32.38L85.57-32.38L85.57-32.38Q88.06-32.38 89.76-31.58L89.76-31.58L89.76-31.58Q91.46-30.78 92.45-29.34L92.45-29.34L92.45-29.34Q93.44-27.90 93.89-25.89L93.89-25.89L93.89-25.89Q94.34-23.87 94.34-21.38L94.34-21.38L94.34 0ZM109.06 0.26L109.06 0.26Q105.66 0.26 103.87-1.76L103.87-1.76L103.87-1.76Q102.08-3.78 102.08-6.98L102.08-6.98L102.08-31.87L109.38-31.87L109.38-7.62L109.38-7.62Q109.38-6.14 109.82-5.63L109.82-5.63L109.82-5.63Q110.27-5.12 111.17-5.12L111.17-5.12L111.17-5.12Q111.42-5.12 111.71-5.12L111.71-5.12L111.71-5.12Q112.00-5.12 112.26-5.18L112.26-5.18L112.26-5.18Q112.51-5.18 112.83-5.25L112.83-5.25L113.60-0.64L113.60-0.64Q113.15-0.38 112.45-0.19L112.45-0.19L112.45-0.19Q111.87 0 111.01 0.13L111.01 0.13L111.01 0.13Q110.14 0.26 109.06 0.26L109.06 0.26ZM105.86-46.08L105.86-46.08Q107.90-46.08 108.99-44.86L108.99-44.86L108.99-44.86Q110.08-43.65 110.08-41.73L110.08-41.73L110.08-41.73Q110.08-39.81 108.96-38.53L108.96-38.53L108.96-38.53Q107.84-37.25 105.66-37.25L105.66-37.25L105.66-37.25Q103.62-37.25 102.50-38.50L102.50-38.50L102.50-38.50Q101.38-39.74 101.38-41.54L101.38-41.54L101.38-41.54Q101.38-43.52 102.50-44.80L102.50-44.80L102.50-44.80Q103.62-46.08 105.86-46.08L105.86-46.08ZM162.50 0L155.26 0L155.26-20.86L155.26-20.86Q155.26-23.55 154.43-25.12L154.43-25.12L154.43-25.12Q153.60-26.69 151.55-26.69L151.55-26.69L151.55-26.69Q150.34-26.69 149.09-26.02L149.09-26.02L149.09-26.02Q147.84-25.34 146.82-24.06L146.82-24.06L146.82-24.06Q145.79-22.78 145.15-20.99L145.15-20.99L145.15-20.99Q144.51-19.20 144.51-17.02L144.51-17.02L144.51 0L137.28 0L137.28-20.86L137.28-20.86Q137.28-23.55 136.45-25.12L136.45-25.12L136.45-25.12Q135.62-26.69 133.57-26.69L133.57-26.69L133.57-26.69Q132.29-26.69 131.04-25.95L131.04-25.95L131.04-25.95Q129.79-25.22 128.80-23.81L128.80-23.81L128.80-23.81Q127.81-22.40 127.20-20.38L127.20-20.38L127.20-20.38Q126.59-18.37 126.59-15.87L126.59-15.87L126.59 0L119.30 0L119.30-16.13L119.30-16.13Q119.30-19.97 118.78-22.56L118.78-22.56L118.78-22.56Q118.27-25.15 117.70-26.75L117.70-26.75L117.70-26.75Q116.99-28.61 116.16-29.76L116.16-29.76L121.92-32.06L121.92-32.06Q122.56-31.36 123.20-30.34L123.20-30.34L123.20-30.34Q123.71-29.44 124.22-28.13L124.22-28.13L124.22-28.13Q124.74-26.82 125.06-25.15L125.06-25.15L125.06-25.15Q126.66-28.99 129.57-30.69L129.57-30.69L129.57-30.69Q132.48-32.38 135.74-32.38L135.74-32.38L135.74-32.38Q139.01-32.38 140.83-30.72L140.83-30.72L140.83-30.72Q142.66-29.06 143.55-26.43L143.55-26.43L143.55-26.43Q145.28-29.63 148-31.01L148-31.01L148-31.01Q150.72-32.38 153.73-32.38L153.73-32.38L153.73-32.38Q156.22-32.38 157.92-31.58L157.92-31.58L157.92-31.58Q159.62-30.78 160.61-29.34L160.61-29.34L160.61-29.34Q161.60-27.90 162.05-25.89L162.05-25.89L162.05-25.89Q162.50-23.87 162.50-21.38L162.50-21.38L162.50 0ZM196.22-30.53L196.22-15.42L196.22-15.42Q196.22-11.58 196.70-8.99L196.70-8.99L196.70-8.99Q197.18-6.40 197.76-4.80L197.76-4.80L197.76-4.80Q198.46-2.88 199.30-1.79L199.30-1.79L193.60 0.51L193.60 0.51Q192.77-0.32 192.06-1.47L192.06-1.47L192.06-1.47Q191.49-2.50 190.98-3.94L190.98-3.94L190.98-3.94Q190.46-5.38 190.34-7.36L190.34-7.36L190.34-7.36Q189.25-3.52 186.85-1.57L186.85-1.57L186.85-1.57Q184.45 0.38 180.35 0.38L180.35 0.38L180.35 0.38Q177.34 0.38 175.14-0.74L175.14-0.74L175.14-0.74Q172.93-1.86 171.46-3.94L171.46-3.94L171.46-3.94Q169.98-6.02 169.28-8.96L169.28-8.96L169.28-8.96Q168.58-11.90 168.58-15.49L168.58-15.49L168.58-15.49Q168.58-19.14 169.70-22.24L169.70-22.24L169.70-22.24Q170.82-25.34 172.83-27.58L172.83-27.58L172.83-27.58Q174.85-29.82 177.66-31.10L177.66-31.10L177.66-31.10Q180.48-32.38 183.87-32.38L183.87-32.38L183.87-32.38Q185.79-32.38 187.87-32.10L187.87-32.10L187.87-32.10Q189.95-31.81 191.74-31.49L191.74-31.49L191.74-31.49Q193.54-31.17 194.78-30.88L194.78-30.88L194.78-30.88Q196.03-30.59 196.22-30.53L196.22-30.53ZM181.57-4.74L181.57-4.74Q183.17-4.74 184.51-5.82L184.51-5.82L184.51-5.82Q185.86-6.91 186.85-8.67L186.85-8.67L186.85-8.67Q187.84-10.43 188.38-12.70L188.38-12.70L188.38-12.70Q188.93-14.98 188.93-17.34L188.93-17.34L188.93-26.56L188.93-26.56Q188.29-26.75 187.01-27.01L187.01-27.01L187.01-27.01Q185.73-27.26 184.70-27.26L184.70-27.26L184.70-27.26Q182.27-27.26 180.70-26.43L180.70-26.43L180.70-26.43Q179.14-25.60 178.18-24.13L178.18-24.13L178.18-24.13Q177.22-22.66 176.83-20.61L176.83-20.61L176.83-20.61Q176.45-18.56 176.45-16.13L176.45-16.13L176.45-16.13Q176.45-13.89 176.58-11.84L176.58-11.84L176.58-11.84Q176.70-9.79 177.25-8.19L177.25-8.19L177.25-8.19Q177.79-6.59 178.82-5.66L178.82-5.66L178.82-5.66Q179.84-4.74 181.57-4.74L181.57-4.74ZM212.10-46.40L212.10-27.78L212.10-27.78Q213.95-30.21 216.54-31.30L216.54-31.30L216.54-31.30Q219.14-32.38 222.02-32.38L222.02-32.38L222.02-32.38Q226.94-32.38 229.15-29.41L229.15-29.41L229.15-29.41Q231.36-26.43 231.36-21.38L231.36-21.38L231.36 0L224.06 0L224.06-20.86L224.06-20.86Q224.06-23.55 223.10-25.12L223.10-25.12L223.10-25.12Q222.14-26.69 219.84-26.69L219.84-26.69L219.84-26.69Q218.50-26.69 217.12-25.98L217.12-25.98L217.12-25.98Q215.74-25.28 214.62-23.97L214.62-23.97L214.62-23.97Q213.50-22.66 212.80-20.86L212.80-20.86L212.80-20.86Q212.10-19.07 212.10-16.90L212.10-16.90L212.10 0L204.80 0L204.80-45.12L212.10-46.40ZM243.90-8.96L243.90-8.96Q246.14-8.96 247.33-7.62L247.33-7.62L247.33-7.62Q248.51-6.27 248.51-4.16L248.51-4.16L248.51-4.16Q248.51-2.11 247.30-0.70L247.30-0.70L247.30-0.70Q246.08 0.70 243.71 0.70L243.71 0.70L243.71 0.70Q241.47 0.70 240.26-0.70L240.26-0.70L240.26-0.70Q239.04-2.11 239.04-4.03L239.04-4.03L239.04-4.03Q239.04-6.08 240.26-7.52L240.26-7.52L240.26-7.52Q241.47-8.96 243.90-8.96L243.90-8.96ZM256.90 0L256.90-43.33L256.90-43.33Q257.34-43.33 258.94-43.36L258.94-43.36L258.94-43.36Q260.54-43.39 262.53-43.39L262.53-43.39L262.53-43.39Q264.51-43.39 266.50-43.42L266.50-43.42L266.50-43.42Q268.48-43.46 269.76-43.46L269.76-43.46L269.76-43.46Q277.18-43.46 281.06-40.51L281.06-40.51L281.06-40.51Q284.93-37.57 284.93-32.19L284.93-32.19L284.93-32.19Q284.93-29.06 283.20-26.56L283.20-26.56L283.20-26.56Q281.47-24.06 278.40-22.53L278.40-22.53L278.40-22.53Q282.24-21.06 284.26-18.37L284.26-18.37L284.26-18.37Q286.27-15.68 286.27-12.16L286.27-12.16L286.27-12.16Q286.27-6.66 282.11-3.30L282.11-3.30L282.11-3.30Q277.95 0.06 269.50 0.06L269.50 0.06L269.50 0.06Q267.78 0.06 265.79 0.06L265.79 0.06L265.79 0.06Q263.81 0.06 262.02 0.03L262.02 0.03L262.02 0.03Q260.22 0 258.85 0L258.85 0L258.85 0Q257.47 0 256.90 0L256.90 0ZM264.51-19.39L264.51-5.44L270.02-5.44L270.02-5.44Q274.37-5.44 276.26-7.39L276.26-7.39L276.26-7.39Q278.14-9.34 278.14-12.29L278.14-12.29L278.14-12.29Q278.14-13.63 277.73-14.91L277.73-14.91L277.73-14.91Q277.31-16.19 276.29-17.22L276.29-17.22L276.29-17.22Q275.26-18.24 273.57-18.85L273.57-18.85L273.57-18.85Q271.87-19.46 269.31-19.46L269.31-19.46L269.31-19.46Q267.78-19.46 266.59-19.46L266.59-19.46L266.59-19.46Q265.41-19.46 264.51-19.39L264.51-19.39ZM264.51-37.95L264.51-24.90L269.44-24.90L269.44-24.90Q273.47-24.90 275.20-26.75L275.20-26.75L275.20-26.75Q276.93-28.61 276.93-31.30L276.93-31.30L276.93-31.30Q276.93-32.51 276.54-33.73L276.54-33.73L276.54-33.73Q276.16-34.94 275.23-35.90L275.23-35.90L275.23-35.90Q274.30-36.86 272.74-37.44L272.74-37.44L272.74-37.44Q271.17-38.02 268.80-38.02L268.80-38.02L268.80-38.02Q267.39-38.02 266.34-38.02L266.34-38.02L266.34-38.02Q265.28-38.02 264.51-37.95L264.51-37.95Z" fill="#ccc"></path></g></g><style>text {
  font-size: 64px;
  font-family: Arial Black;
  dominant-baseline: central;
  text-anchor: middle;
}</style></svg>